<svg width="63" height="71" viewBox="0 0 63 71" fill="none" xmlns="http://www.w3.org/2000/svg">
<path d="M16.6887 21.2188H8.23359L6.75703 26H0.165234L9.55195 0.40625H15.3527L24.8098 26H18.1828L16.6887 21.2188ZM9.71016 16.4551H15.2121L12.4523 7.57812L9.71016 16.4551ZM60.8484 0.40625V17.1582C60.8484 19.0566 60.4441 20.7031 59.6355 22.0977C58.827 23.4805 57.6668 24.5352 56.1551 25.2617C54.6434 25.9883 52.8563 26.3516 50.7938 26.3516C47.6766 26.3516 45.2215 25.543 43.4285 23.9258C41.6355 22.3086 40.7215 20.0938 40.6863 17.2812V0.40625H46.8914V17.4043C46.9617 20.2051 48.2625 21.6055 50.7938 21.6055C52.0711 21.6055 53.0379 21.2539 53.6941 20.5508C54.3504 19.8477 54.6785 18.7051 54.6785 17.123V0.40625H60.8484ZM11.7316 61.9648H8.3918V71H2.22187V45.4062H12.2941C15.3293 45.4062 17.7023 46.0801 19.4133 47.4277C21.1242 48.7754 21.9797 50.6797 21.9797 53.1406C21.9797 54.9219 21.6164 56.3984 20.8898 57.5703C20.175 58.7422 19.05 59.6914 17.5148 60.418L22.8586 70.7363V71H16.2492L11.7316 61.9648ZM8.3918 57.2012H12.2941C13.466 57.2012 14.3449 56.8965 14.9309 56.2871C15.5285 55.666 15.8273 54.8047 15.8273 53.7031C15.8273 52.6016 15.5285 51.7402 14.9309 51.1191C14.3332 50.4863 13.4543 50.1699 12.2941 50.1699H8.3918V57.2012ZM54.6434 66.2188H46.1883L44.7117 71H38.1199L47.5066 45.4062H53.3074L62.7645 71H56.1375L54.6434 66.2188ZM47.6648 61.4551H53.1668L50.407 52.5781L47.6648 61.4551Z" fill="white"/>
</svg>
